<?xml version="1.0" encoding="UTF-8"?>
<svg id="Layer_1" xmlns="http://www.w3.org/2000/svg" version="1.1" viewBox="0 0 1080 1080">
  <!-- Generator: Adobe Illustrator 30.2.1, SVG Export Plug-In . SVG Version: 2.1.1 Build 1)  -->
  <defs>
    <style>
      .st0 {
        fill: #264ba3;
      }

      .st1 {
        fill: #ea1d27;
      }
    </style>
  </defs>
  <path id="path48" class="st1" d="M598.2,19.42s39.36,68.2-28.63,196.94c0,0,25.02-45.37,47.46-58.69,0,0,5.72,98.75-56.89,154.08l3.43,9.66s8.62-5.36,17.97-5.68c0,0-45.75,85.57-47.96,89.09-2.22,3.51-253.95,474.5-253.95,474.5l8.83,27.47,4.94,30,.96,7.16-1.89,10.62-.57,5.76,13.79,100.26-21.69-28.7-89.99-145.24-73.49-127.88s-19.42-29.09-3.21-80.44c0,0,36.82-167.11,107.52-232.24,0,0,63.4-70.54,94.25-97.27l75.66-67.76,121.37-133.78s67.02-113.26,82.09-127.85"/>
  <path id="path50" class="st0" d="M533.58,404.81l-74.37,57.22,49.98-20.54s-65.98,99.11-134.64,134.28l37.09-11.32s-57.01,91.75-117.85,138.93l31.06-11.16s-76.17,215.65-32.38,262.33l6.35-6.45s38.72-136.25,94.33-186.21l54.64-55.28-36.86-5.88s137.28-38.88,161.73-74.67l-4.65-13.94s95.97-23.48,146.37-55.96c0,0-.15-6.01-44.31-6.63,0,0,111.55-14.44,170.81-91l-47.39,9.55,49.22-28.1s63.26-18.47,84.65-106.25l-49,25.87,16.23-20.12,32.16-29.78s43.21-35.44,42.38-110.44c0,0-139.5,126.02-435.55,205.55"/>
</svg>